# xmcd CD database file
# Copyright (C) 1993-1998 Ti Kan
#
# Track frame offsets:
#  150
#  15927
#  33178
#  48861
#  68311
#  82702
#  101418
#  113167
#  127702
#  139609
#
# Disc length: 2090 seconds
#
# Revision: 1
# Processed by: cddbd v1.4b41PL1 Copyright (c) Steve Scherf et al.
# Submitted via: CDWizzard Release:4.35
#
DISCID=5e08280a
DTITLE=Tommy Ray O'Dell - Long Way From Home
DYEAR=1900
DGENRE=
TTITLE0=Deeper Than Skin Deep
TTITLE1=Priorities
TTITLE2=Didn't It Rain
TTITLE3=Long Way From Home
TTITLE4=Over Waterfall
TTITLE5=Wade In The Water
TTITLE6=Few Workers
TTITLE7=Conformed To His Image
TTITLE8=Cry
TTITLE9=From The Old School
EXTD=
EXTT0=
EXTT1=
EXTT2=
EXTT3=
EXTT4=
EXTT5=
EXTT6=
EXTT7=
EXTT8=
EXTT9=
PLAYORDER=
